<?xml version="1.0" encoding="UTF-8"?>
<svg id="Calque_1" data-name="Calque 1" xmlns="http://www.w3.org/2000/svg" viewBox="0 95 300 110">
  <defs>
    <style>
      .cls-1 {
        fill: #ed5518;
      }
    </style>
  </defs>
  <path class="cls-1" d="M101.26,104.52l42.66,55.26-36.44,47c-.46.53-.46,1,0,1.4.11.1.3.15.45.22.45.22,1.02.37,1.82.37h12.96c.63,0,1.15-.05,1.62-.13.32-.05.63-.11.88-.2.19-.07.37-.2.55-.31.24-.15.47-.34.68-.56.12-.13.26-.24.37-.39l28.44-38.13,27.72,38.13c.46.62.98,1.04,1.6,1.26.3.11.66.19,1.08.25s.89.08,1.42.08h15.91c.53,0,.99-.05,1.37-.15.38-.1.68-.25.91-.45.45-.4.45-.87,0-1.4l-36.92-46.34,16.41-21.33,16.41-21.33c.46-.53.46-1,0-1.39-.23-.2-.53-.35-.91-.45-.38-.1-.83-.15-1.36-.15h-12.96c-1.06,0-1.9.12-2.5.33-.61.22-1.14.64-1.59,1.26l-24.73,33.8-42.17-56.65h0l-26.8-36c-.46-.62-.99-1.04-1.59-1.26-.61-.22-1.44-.33-2.5-.33h-15.69c-1.06,0-1.82.2-2.27.6-.46.4-.46.86,0,1.39l35.19,45.6h0Z"/>
  <path class="cls-1" d="M154.66,83.84c-12.6,0-24.47,3.01-35.05,8.21l37.45,50.31,20.54-28.08c1.07-1.47,2.43-2.5,4.03-3.09,1.2-.44,2.6-.65,4.29-.65h12.96c2.37,0,4.29.64,5.7,1.88,2.6,2.25,2.87,5.93.66,8.62l-30.26,39.34,34.25,43c2.29,2.69,2.06,6.44-.53,8.72-1.43,1.26-3.36,1.9-5.74,1.9h-15.91c-1.69,0-3.09-.21-4.29-.65-1.58-.58-2.93-1.61-4.04-3.1l-23.54-32.37-24.16,32.38c-1.05,1.44-2.44,2.51-4.04,3.1-1.2.43-2.6.64-4.29.64h-12.96c-2.37,0-4.3-.64-5.7-1.88-2.6-2.25-2.86-5.94-.65-8.64l33.9-43.72-39.84-51.62c-13.85,14.32-22.41,33.8-22.41,55.29,0,43.97,35.64,79.61,79.61,79.61s79.61-35.64,79.61-79.61-35.64-79.61-79.61-79.61Z"/>
</svg>
