<?xml version="1.0" encoding="UTF-8"?>
<svg id="Calque_1" data-name="Calque 1" xmlns="http://www.w3.org/2000/svg" viewBox="0 95 300 110">
  <defs>
    <style>
      .cls-1 {
        fill: #ed5518;
      }
    </style>
  </defs>
  <path d="M185.82,135.63l-21.71-27.25,19.3-25.09c.27-.31.27-.59,0-.82-.27-.23-.71-.35-1.33-.35h-7.62c-.63,0-1.12.07-1.47.2-.36.13-.67.38-.94.74l-14.54,19.88-40.56-54.49c-.27-.36-.58-.61-.94-.74-.36-.13-.85-.2-1.47-.2h-9.23c-.63,0-1.07.12-1.34.35-.27.23-.27.51,0,.82l45.78,59.31-21.43,27.64c-.27.31-.27.59,0,.82.27.23.71.35,1.34.35h7.62c.63,0,1.12-.07,1.47-.19.35-.13.67-.38.94-.74l16.73-22.42,16.3,22.42c.27.37.58.61.94.74.36.13.84.19,1.47.19h9.36c.63,0,1.07-.12,1.34-.35s.27-.51,0-.82Z"/>
  <path class="cls-1" d="M90.77,144.66c14.82,0,25.61,7.6,25.61,21.81v8.97c0,14.14-10.79,21.66-25.61,21.66h-1.97c-14.97,0-25.91-7.52-25.91-21.66v-8.97c0-14.21,10.95-21.81,25.91-21.81h1.97ZM75.5,166.77v8.13c0,7.37,4.86,11.32,13.3,11.32h1.75c8.28,0,13.22-3.95,13.22-11.32v-8.13c0-7.3-4.94-11.25-13.22-11.25h-1.75c-8.43,0-13.3,3.95-13.3,11.25Z"/>
  <path class="cls-1" d="M145.85,145.41l21.27,34.27h1.67v-34.27h11.55v50.91h-16.56l-21.28-34.27h-1.74v34.27h-11.48v-50.91h16.57Z"/>
  <path class="cls-1" d="M237.1,145.41v10.11h-30.33v10.03h26.6v9.65h-26.6v10.94h30.7v10.18h-43.16v-50.91h42.79Z"/>
  <g>
    <path d="M69.96,203.38c5.39,0,8.78,2.49,8.78,7.07v.43h-4.5v-.43c0-2.01-1.43-3.2-4.31-3.2h-.57c-2.82,0-4.39,1.28-4.39,3.82v3.25c0,2.68,1.6,3.87,4.39,3.87h.57c2.87,0,4.39-1.19,4.39-3.28v-.27h4.52v.27c0,4.69-3.5,7.15-8.89,7.15h-.6c-5.26,0-8.89-2.49-8.89-7.75v-3.25c0-5.12,3.63-7.69,8.89-7.69h.6Z"/>
    <path d="M91.13,203.38c5.28,0,9.13,2.71,9.13,7.77v3.2c0,5.04-3.85,7.72-9.13,7.72h-.71c-5.34,0-9.24-2.68-9.24-7.72v-3.2c0-5.06,3.9-7.77,9.24-7.77h.71ZM85.68,211.27v2.9c0,2.63,1.73,4.03,4.74,4.03h.62c2.95,0,4.71-1.41,4.71-4.03v-2.9c0-2.6-1.76-4.01-4.71-4.01h-.62c-3.01,0-4.74,1.41-4.74,4.01Z"/>
    <path d="M109.13,203.65l7.58,12.22h.6v-12.22h4.12v18.15h-5.91l-7.58-12.22h-.62v12.22h-4.09v-18.15h5.91Z"/>
    <path d="M130.68,203.65l7.58,12.22h.6v-12.22h4.12v18.15h-5.91l-7.58-12.22h-.62v12.22h-4.09v-18.15h5.91Z"/>
    <path d="M161.58,203.65v3.6h-10.81v3.58h9.48v3.44h-9.48v3.9h10.94v3.63h-15.39v-18.15h15.25Z"/>
    <path d="M168.72,203.65l4.15,6.23h1.16l4.04-6.23h4.74l-5.82,9.02,6.18,9.13h-5.17l-4.36-6.47h-1.25l-4.14,6.47h-4.74l5.91-9.21-5.85-8.94h5.17Z"/>
    <path d="M197.04,203.65v3.68h-3.85v10.78h3.85v3.68h-12.16v-3.68h3.85v-10.78h-3.85v-3.68h12.16Z"/>
    <path d="M209.22,203.38c5.28,0,9.13,2.71,9.13,7.77v3.2c0,5.04-3.85,7.72-9.13,7.72h-.7c-5.34,0-9.24-2.68-9.24-7.72v-3.2c0-5.06,3.9-7.77,9.24-7.77h.7ZM203.78,211.27v2.9c0,2.63,1.73,4.03,4.74,4.03h.62c2.95,0,4.71-1.41,4.71-4.03v-2.9c0-2.6-1.76-4.01-4.71-4.01h-.62c-3.01,0-4.74,1.41-4.74,4.01Z"/>
    <path d="M227.23,203.65l7.58,12.22h.6v-12.22h4.12v18.15h-5.91l-7.58-12.22h-.62v12.22h-4.09v-18.15h5.91Z"/>
  </g>
</svg>
