<?xml version="1.0" encoding="UTF-8"?>
<svg id="Calque_1" data-name="Calque 1" xmlns="http://www.w3.org/2000/svg" viewBox="0 95 300 110">
  <defs>
    <style>
      .cls-1 {
        fill: #ed5518;
      }
    </style>
  </defs>
  <path d="M217.65,145.2v5.62h-5.86v16.43h5.86v5.62h-18.54v-5.62h5.86v-16.43h-5.86v-5.62h18.54Z"/>
  <path d="M236.24,144.78c8.05,0,13.91,4.13,13.91,11.85v4.87c0,7.68-5.86,11.77-13.91,11.77h-1.07c-8.13,0-14.08-4.09-14.08-11.77v-4.87c0-7.72,5.95-11.85,14.08-11.85h1.07ZM227.95,156.8v4.42c0,4.01,2.64,6.15,7.22,6.15h.95c4.5,0,7.18-2.15,7.18-6.15v-4.42c0-3.96-2.69-6.11-7.18-6.11h-.95c-4.58,0-7.22,2.15-7.22,6.11Z"/>
  <path d="M263.72,145.2l11.56,18.62h.91v-18.62h6.28v27.66h-9l-11.56-18.62h-.95v18.62h-6.24v-27.66h9Z"/>
  <path class="cls-1" d="M206.16,177.24l-17.27-21.68,15.36-19.96c.22-.25.22-.47,0-.65-.21-.19-.57-.28-1.06-.28h-6.06c-.5,0-.89.05-1.17.16-.29.1-.53.3-.75.59l-11.57,15.82-32.27-43.35c-.22-.29-.46-.49-.75-.59-.29-.1-.68-.16-1.17-.16h-7.34c-.5,0-.85.09-1.06.28-.22.19-.22.4,0,.65l36.43,47.19-17.05,21.99c-.22.25-.22.47,0,.65.21.19.56.28,1.06.28h6.06c.5,0,.89-.05,1.17-.15.28-.1.53-.3.75-.59l13.31-17.84,12.97,17.84c.22.29.46.49.75.59.28.1.67.15,1.17.15h7.45c.5,0,.85-.09,1.07-.28s.21-.41,0-.65Z"/>
  <g>
    <path class="cls-1" d="M64.29,112.21c8.05,0,13.91,4.13,13.91,11.85v4.87c0,7.68-5.86,11.77-13.91,11.77h-1.07c-8.13,0-14.08-4.09-14.08-11.77v-4.87c0-7.72,5.95-11.85,14.08-11.85h1.07ZM56,124.22v4.42c0,4.01,2.64,6.15,7.22,6.15h.95c4.5,0,7.18-2.15,7.18-6.15v-4.42c0-3.96-2.69-6.11-7.18-6.11h-.95c-4.58,0-7.22,2.15-7.22,6.11Z"/>
    <path class="cls-1" d="M91.77,112.62l11.56,18.62h.91v-18.62h6.28v27.66h-9l-11.56-18.62h-.95v18.62h-6.24v-27.66h9Z"/>
    <path class="cls-1" d="M138.89,112.62v5.49h-16.47v5.45h14.45v5.24h-14.45v5.94h16.68v5.53h-23.45v-27.66h23.24Z"/>
    <path d="M31.99,144.78c8.22,0,13.38,3.8,13.38,10.78v.66h-6.85v-.66c0-3.05-2.19-4.87-6.56-4.87h-.86c-4.3,0-6.69,1.94-6.69,5.82v4.95c0,4.09,2.44,5.9,6.69,5.9h.86c4.38,0,6.69-1.82,6.69-5v-.41h6.89v.41c0,7.14-5.32,10.9-13.54,10.9h-.91c-8.01,0-13.54-3.8-13.54-11.81v-4.95c0-7.8,5.53-11.72,13.54-11.72h.91Z"/>
    <path d="M64.29,144.78c8.05,0,13.91,4.13,13.91,11.85v4.87c0,7.68-5.86,11.77-13.91,11.77h-1.07c-8.13,0-14.08-4.09-14.08-11.77v-4.87c0-7.72,5.94-11.85,14.08-11.85h1.07ZM55.99,156.8v4.42c0,4.01,2.64,6.15,7.23,6.15h.95c4.5,0,7.18-2.15,7.18-6.15v-4.42c0-3.96-2.68-6.11-7.18-6.11h-.95c-4.59,0-7.23,2.15-7.23,6.11Z"/>
    <path d="M91.76,145.2l11.56,18.62h.91v-18.62h6.28v27.66h-9l-11.56-18.62h-.95v18.62h-6.23v-27.66h9Z"/>
    <path d="M124.64,145.2l11.56,18.62h.91v-18.62h6.28v27.66h-9l-11.56-18.62h-.95v18.62h-6.23v-27.66h9Z"/>
    <path d="M171.76,145.2v5.49h-16.47v5.45h14.45v5.24h-14.45v5.94h16.68v5.53h-23.45v-27.66h23.24Z"/>
  </g>
</svg>
