<?xml version="1.0" encoding="UTF-8"?>
<svg id="Calque_1" data-name="Calque 1" xmlns="http://www.w3.org/2000/svg" viewBox="0 95 300 110">
  <defs>
    <style>
      .cls-1 {
        fill: #ed5518;
      }
    </style>
  </defs>
  <path class="cls-1" d="M206.29,208.58l-39.96-50.15,35.52-46.18c.5-.58.5-1.08,0-1.51-.49-.43-1.31-.65-2.46-.65h-14.03c-1.15,0-2.05.12-2.71.36-.66.24-1.24.7-1.73,1.36l-26.77,36.58L79.53,48.13c-.5-.67-1.07-1.12-1.73-1.36-.66-.24-1.56-.36-2.71-.36h-16.98c-1.15,0-1.97.22-2.46.65-.5.43-.5.93,0,1.51l84.26,109.16-39.44,50.87c-.5.58-.5,1.08,0,1.51.49.43,1.31.65,2.46.65h14.03c1.15,0,2.05-.12,2.71-.36.65-.24,1.24-.7,1.73-1.37l30.78-41.26,30,41.26c.5.67,1.07,1.13,1.73,1.37.65.24,1.56.36,2.71.36h17.22c1.15,0,1.98-.21,2.46-.65s.49-.94,0-1.51Z"/>
  <path class="cls-1" d="M152.68,253.6c-22.84,0-44.56-8.36-61.6-23.8-18.19-16.49-28.88-39.07-30.09-63.6-1.05-21.2,5.33-42.25,17.97-59.26,1.86-2.52,5.42-3.03,7.92-1.17,2.51,1.86,3.04,5.41,1.17,7.92-11.07,14.92-16.66,33.37-15.74,51.96,1.06,21.5,10.43,41.3,26.37,55.75,15.94,14.45,36.49,21.82,58.07,20.77,21.5-1.06,41.3-10.43,55.75-26.37,14.45-15.95,21.83-36.57,20.77-58.07-1.06-21.5-10.43-41.3-26.37-55.75-15.95-14.45-36.52-21.83-58.07-20.77-7.92.39-15.67,1.91-23.04,4.54-2.94,1.04-6.19-.49-7.24-3.44s.49-6.19,3.44-7.24c8.41-2.99,17.25-4.73,26.28-5.18,24.43-1.26,48.04,7.2,66.24,23.69,18.19,16.49,28.88,39.07,30.09,63.6,1.21,24.52-7.2,48.04-23.69,66.24-16.49,18.19-39.07,28.88-63.6,30.09-1.54.08-3.09.11-4.63.11Z"/>
</svg>
