<?xml version="1.0" encoding="UTF-8"?>
<svg id="Calque_1" data-name="Calque 1" xmlns="http://www.w3.org/2000/svg" viewBox="0 95 300 110">
  <defs>
    <style>
      .cls-1 {
        fill: #ed5518;
      }
    </style>
  </defs>
  <path d="M225.11,142.72v3.53h-3.69v10.33h3.69v3.53h-11.65v-3.53h3.69v-10.33h-3.69v-3.53h11.65Z"/>
  <path d="M236.8,142.46c5.06,0,8.75,2.6,8.75,7.45v3.06c0,4.83-3.69,7.4-8.75,7.4h-.67c-5.11,0-8.85-2.57-8.85-7.4v-3.06c0-4.85,3.74-7.45,8.85-7.45h.67ZM231.58,150.02v2.78c0,2.52,1.66,3.87,4.54,3.87h.6c2.83,0,4.52-1.35,4.52-3.87v-2.78c0-2.49-1.69-3.84-4.52-3.84h-.6c-2.88,0-4.54,1.35-4.54,3.84Z"/>
  <path d="M254.07,142.72l7.27,11.71h.57v-11.71h3.95v17.39h-5.66l-7.27-11.71h-.6v11.71h-3.92v-17.39h5.66Z"/>
  <path class="cls-1" d="M217.88,162.87l-10.86-13.63,9.65-12.55c.14-.16.14-.29,0-.41-.13-.12-.36-.18-.67-.18h-3.81c-.31,0-.56.03-.74.1-.18.07-.34.19-.47.37l-7.27,9.94-20.29-27.25c-.14-.18-.29-.31-.47-.37-.18-.06-.42-.1-.74-.1h-4.62c-.31,0-.53.06-.67.18-.14.12-.14.25,0,.41l22.9,29.67-10.72,13.82c-.14.16-.14.29,0,.41.13.12.35.18.67.18h3.81c.31,0,.56-.03.74-.1.18-.07.34-.19.47-.37l8.37-11.21,8.15,11.21c.14.18.29.31.47.37.18.06.42.1.74.1h4.68c.31,0,.54-.06.67-.18s.13-.25,0-.41Z"/>
  <g>
    <path d="M43.67,142.46c5.06,0,8.75,2.6,8.75,7.45v3.06c0,4.83-3.69,7.4-8.75,7.4h-.67c-5.11,0-8.85-2.57-8.85-7.4v-3.06c0-4.85,3.74-7.45,8.85-7.45h.67ZM38.46,150.01v2.78c0,2.52,1.66,3.87,4.54,3.87h.6c2.83,0,4.52-1.35,4.52-3.87v-2.78c0-2.49-1.69-3.84-4.52-3.84h-.6c-2.88,0-4.54,1.35-4.54,3.84Z"/>
    <path d="M60.94,142.72l7.27,11.71h.57v-11.71h3.95v17.39h-5.66l-7.27-11.71h-.6v11.71h-3.92v-17.39h5.66Z"/>
    <path d="M90.57,142.72v3.45h-10.36v3.43h9.08v3.3h-9.08v3.74h10.49v3.48h-14.74v-17.39h14.61Z"/>
    <path d="M108.4,142.46c5.16,0,8.41,2.39,8.41,6.77v.42h-4.31v-.42c0-1.92-1.38-3.06-4.13-3.06h-.54c-2.7,0-4.21,1.22-4.21,3.66v3.11c0,2.57,1.53,3.71,4.21,3.71h.54c2.75,0,4.21-1.14,4.21-3.14v-.26h4.33v.26c0,4.49-3.35,6.85-8.51,6.85h-.57c-5.04,0-8.51-2.39-8.51-7.42v-3.11c0-4.9,3.48-7.37,8.51-7.37h.57Z"/>
    <path d="M128.7,142.46c5.06,0,8.75,2.6,8.75,7.45v3.06c0,4.83-3.69,7.4-8.75,7.4h-.67c-5.11,0-8.85-2.57-8.85-7.4v-3.06c0-4.85,3.74-7.45,8.85-7.45h.67ZM123.48,150.02v2.78c0,2.52,1.66,3.87,4.54,3.87h.6c2.83,0,4.52-1.35,4.52-3.87v-2.78c0-2.49-1.69-3.84-4.52-3.84h-.6c-2.88,0-4.54,1.35-4.54,3.84Z"/>
    <path d="M145.97,142.72l7.27,11.71h.57v-11.71h3.95v17.39h-5.66l-7.27-11.71h-.6v11.71h-3.92v-17.39h5.66Z"/>
    <path d="M166.64,142.72l7.27,11.71h.57v-11.71h3.95v17.39h-5.66l-7.27-11.71h-.6v11.71h-3.92v-17.39h5.66Z"/>
    <path d="M196.26,142.72v3.45h-10.35v3.43h9.08v3.3h-9.08v3.74h10.48v3.48h-14.74v-17.39h14.61Z"/>
  </g>
</svg>
