<?xml version="1.0" encoding="UTF-8"?>
<svg id="Calque_1" data-name="Calque 1" xmlns="http://www.w3.org/2000/svg" viewBox="0 95 300 110">
  <defs>
    <style>
      .cls-1, .cls-2 {
        fill: #ed5518;
      }

      .cls-2 {
        stroke: #ed5518;
        stroke-miterlimit: 10;
      }
    </style>
  </defs>
  <g>
    <path class="cls-1" d="M126.45,62.77c7.74-1.96,14.37.59,16.25,8.01l1.18,4.68c1.87,7.38-2.78,12.73-10.51,14.69l-1.03.26c-7.82,1.98-14.52-.51-16.39-7.89l-1.18-4.68c-1.88-7.42,2.83-12.83,10.65-14.81l1.03-.26ZM121.4,76.33l1.07,4.25c.97,3.85,4.03,5.27,8.44,4.16l.91-.23c4.32-1.09,6.38-3.81,5.41-7.66l-1.07-4.25c-.96-3.81-4.06-5.22-8.39-4.13l-.91.23c-4.4,1.11-6.42,3.82-5.46,7.63Z"/>
    <path class="cls-1" d="M162.52,61.2l7.8,20.27.88.17,3.45-18.13,6.11,1.16-5.13,26.93-8.76-1.67-7.8-20.27-.92-.18-3.45,18.12-6.07-1.16,5.13-26.93,8.76,1.67Z"/>
    <path class="cls-1" d="M212.33,83.29l-3.05,4.5-13.51-9.14-3.02,4.47,11.85,8.02-2.91,4.3-11.85-8.02-3.3,4.88,13.68,9.26-3.07,4.54-19.24-13.01,15.35-22.69,19.07,12.9Z"/>
    <path d="M235.08,113.28c3.64,7.28,2.57,13.54-3.62,16.63l-.59.29-3.04-6.07.59-.29c2.71-1.35,3.35-4.1,1.41-7.98l-.38-.77c-1.9-3.8-4.69-5.07-8.12-3.34l-4.39,2.2c-3.62,1.81-4.15,4.78-2.27,8.54l.38.77c1.94,3.88,4.58,5.12,7.39,3.71l.37-.18,3.06,6.11-.37.18c-6.33,3.17-12.02.11-15.66-7.16l-.4-.81c-3.55-7.1-2.64-13.68,4.46-17.24l4.39-2.2c6.91-3.46,12.84-.3,16.39,6.8l.4.81Z"/>
    <path d="M244.88,152.83c.27,7.97-3.61,13.92-11.26,14.18l-4.82.17c-7.6.26-11.85-5.4-12.12-13.37l-.04-1.06c-.28-8.05,3.57-14.08,11.17-14.34l4.82-.17c7.64-.26,11.93,5.48,12.21,13.54l.04,1.06ZM232.7,145.02l-4.37.15c-3.96.14-6,2.82-5.84,7.36l.03.94c.15,4.46,2.37,7.04,6.34,6.9l4.37-.15c3.92-.13,5.96-2.86,5.8-7.32l-.03-.94c-.16-4.54-2.37-7.08-6.3-6.94Z"/>
    <path d="M238.82,188.46l-21.47,3.31-.35.83,16.98,7.23-2.44,5.72-25.22-10.75,3.5-8.21,21.47-3.31.37-.86-16.98-7.23,2.42-5.69,25.22,10.75-3.5,8.21Z"/>
    <path d="M216.52,223.18l-20.85-6.07-.67.6,12.33,13.73-4.63,4.15-18.32-20.39,6.63-5.96,20.85,6.07.7-.63-12.33-13.73,4.59-4.13,18.32,20.39-6.63,5.96Z"/>
    <path d="M168.78,249.5l-1.75-5.15,15.46-5.23-1.73-5.12-13.56,4.59-1.67-4.92,13.56-4.59-1.89-5.58-15.65,5.3-1.76-5.19,22.01-7.45,8.79,25.96-21.81,7.39Z"/>
    <path d="M149.79,250.99l-5.61-9.81-1.75-.12-6.71,8.98-7.14-.48,9.69-13-8.38-14.38,7.79.52,5.91,10.2,1.88.13,6.9-9.33,7.14.48-9.83,13.28,7.91,14.06-7.79-.53Z"/>
    <path d="M101.62,238.44l2.3-5.06,5.29,2.41,6.74-14.82-5.29-2.41,2.3-5.07,16.72,7.6-2.3,5.06-5.29-2.4-6.74,14.82,5.29,2.41-2.3,5.06-16.72-7.6Z"/>
    <path d="M81.13,222.53c-5.63-5.66-6.82-12.67-1.39-18.06l3.43-3.4c5.4-5.37,12.37-4.1,18,1.56l.75.76c5.68,5.72,6.97,12.75,1.57,18.12l-3.43,3.4c-5.43,5.4-12.48,4.1-18.17-1.62l-.75-.75ZM95.37,219.97l3.11-3.09c2.82-2.8,2.48-6.16-.72-9.38l-.66-.67c-3.14-3.16-6.53-3.55-9.35-.75l-3.11,3.09c-2.79,2.77-2.42,6.16.73,9.32l.66.67c3.2,3.22,6.56,3.58,9.34.81Z"/>
    <path d="M61.38,192.24l13.5-17.01-.3-.85-17.37,6.23-2.1-5.85,25.8-9.25,3.01,8.39-13.5,17.01.32.89,17.37-6.23,2.09,5.81-25.8,9.25-3.01-8.39Z"/>
  </g>
  <path class="cls-2" d="M191.14,195.32l-30.3-38.03,26.94-35.02c.38-.44.38-.82,0-1.14-.37-.33-1-.49-1.86-.49h-10.64c-.87,0-1.56.09-2.05.27-.5.18-.94.53-1.31,1.03l-20.3,27.74-56.6-76.04c-.38-.51-.81-.85-1.31-1.03-.5-.18-1.19-.27-2.05-.27h-12.88c-.87,0-1.49.17-1.86.49-.38.33-.38.71,0,1.14l63.89,82.77-29.91,38.57c-.38.44-.38.82,0,1.15.37.33.99.49,1.86.49h10.64c.87,0,1.56-.09,2.05-.27.5-.18.94-.53,1.31-1.04l23.34-31.29,22.75,31.29c.38.51.81.85,1.31,1.04.5.18,1.18.27,2.05.27h13.06c.87,0,1.5-.16,1.87-.49.37-.33.37-.71,0-1.15Z"/>
</svg>
