<?xml version="1.0" encoding="UTF-8"?>
<svg id="Calque_1" data-name="Calque 1" xmlns="http://www.w3.org/2000/svg" viewBox="0 95 300 110">
  <defs>
    <style>
      .cls-1, .cls-2 {
        fill: #ed5518;
      }

      .cls-3 {
        font-family: LoosWide-Medium, 'Loos Wide';
        font-size: 11px;
        font-weight: 500;
      }

      .cls-4 {
        font-family: LoosWide-ExtraLight, 'Loos Wide';
        font-size: 10px;
        font-weight: 200;
      }

      .cls-5 {
        fill: #fff;
      }

      .cls-6 {
        stroke: #000;
        stroke-width: .5px;
      }

      .cls-6, .cls-7 {
        fill: none;
      }

      .cls-6, .cls-7, .cls-2 {
        stroke-miterlimit: 10;
      }

      .cls-8 {
        letter-spacing: -.08em;
      }

      .cls-9 {
        letter-spacing: -.01em;
      }

      .cls-10 {
        letter-spacing: -.01em;
      }

      .cls-7 {
        stroke-linecap: round;
        stroke-width: 2px;
      }

      .cls-7, .cls-2 {
        stroke: #ed5518;
      }

      .cls-11 {
        letter-spacing: -.03em;
      }

      .cls-12 {
        letter-spacing: -.03em;
      }

      .cls-13 {
        letter-spacing: 0em;
      }

      .cls-14 {
        letter-spacing: 0em;
      }

      .cls-15 {
        letter-spacing: 0em;
      }

      .cls-16 {
        letter-spacing: -.01em;
      }

      .cls-17 {
        letter-spacing: -.01em;
      }

      .cls-18 {
        letter-spacing: 0em;
      }

      .cls-19 {
        letter-spacing: 0em;
      }

      .cls-20 {
        letter-spacing: 0em;
      }
    </style>
  </defs>
  <circle class="cls-1" cx="259.5" cy="187.59" r="15.21"/>
  <rect class="cls-1" x="99.88" y="245.09" width="100.24" height="55.17"/>
  <rect x="199.76" y="245.09" width="100.24" height="55.17"/>
  <path d="M67.99,271.45v1.42h-1.48v4.15h1.48v1.42h-4.68v-1.42h1.48v-4.15h-1.48v-1.42h4.68Z"/>
  <path d="M72.68,271.34c2.03,0,3.51,1.04,3.51,2.99v1.23c0,1.94-1.48,2.97-3.51,2.97h-.27c-2.05,0-3.55-1.03-3.55-2.97v-1.23c0-1.95,1.5-2.99,3.55-2.99h.27ZM70.59,274.37v1.11c0,1.01.67,1.55,1.82,1.55h.24c1.13,0,1.81-.54,1.81-1.55v-1.11c0-1-.68-1.54-1.81-1.54h-.24c-1.16,0-1.82.54-1.82,1.54Z"/>
  <path d="M79.61,271.45l2.92,4.7h.23v-4.7h1.58v6.98h-2.27l-2.92-4.7h-.24v4.7h-1.57v-6.98h2.27Z"/>
  <path class="cls-1" d="M65.09,279.53l-4.36-5.47,3.88-5.04c.05-.06.05-.12,0-.16-.05-.05-.14-.07-.27-.07h-1.53c-.13,0-.22.01-.3.04-.07.03-.13.08-.19.15l-2.92,3.99-8.14-10.94c-.05-.07-.12-.12-.19-.15-.07-.03-.17-.04-.3-.04h-1.85c-.13,0-.21.02-.27.07-.05.05-.05.1,0,.16l9.19,11.91-4.3,5.55c-.05.06-.05.12,0,.16.05.05.14.07.27.07h1.53c.13,0,.22-.01.3-.04.07-.03.13-.08.19-.15l3.36-4.5,3.27,4.5c.05.07.12.12.19.15.07.03.17.04.3.04h1.88c.13,0,.22-.02.27-.07s.05-.1,0-.16Z"/>
  <g>
    <path class="cls-1" d="M29.29,263.12c2.03,0,3.51,1.04,3.51,2.99v1.23c0,1.94-1.48,2.97-3.51,2.97h-.27c-2.05,0-3.55-1.03-3.55-2.97v-1.23c0-1.95,1.5-2.99,3.55-2.99h.27ZM27.19,266.15v1.11c0,1.01.67,1.55,1.82,1.55h.24c1.13,0,1.81-.54,1.81-1.55v-1.11c0-1-.68-1.54-1.81-1.54h-.24c-1.16,0-1.82.54-1.82,1.54Z"/>
    <path class="cls-1" d="M36.22,263.22l2.92,4.7h.23v-4.7h1.58v6.98h-2.27l-2.92-4.7h-.24v4.7h-1.57v-6.98h2.27Z"/>
    <path class="cls-1" d="M48.11,263.22v1.39h-4.16v1.38h3.65v1.32h-3.65v1.5h4.21v1.4h-5.92v-6.98h5.87Z"/>
    <path d="M21.14,271.34c2.07,0,3.38.96,3.38,2.72v.17h-1.73v-.17c0-.77-.55-1.23-1.66-1.23h-.22c-1.08,0-1.69.49-1.69,1.47v1.25c0,1.03.61,1.49,1.69,1.49h.22c1.1,0,1.69-.46,1.69-1.26v-.1h1.74v.1c0,1.8-1.34,2.75-3.42,2.75h-.23c-2.02,0-3.42-.96-3.42-2.98v-1.25c0-1.97,1.4-2.96,3.42-2.96h.23Z"/>
    <path d="M29.29,271.34c2.03,0,3.51,1.04,3.51,2.99v1.23c0,1.94-1.48,2.97-3.51,2.97h-.27c-2.05,0-3.55-1.03-3.55-2.97v-1.23c0-1.95,1.5-2.99,3.55-2.99h.27ZM27.19,274.37v1.11c0,1.01.67,1.55,1.82,1.55h.24c1.14,0,1.81-.54,1.81-1.55v-1.11c0-1-.68-1.54-1.81-1.54h-.24c-1.16,0-1.82.54-1.82,1.54Z"/>
    <path d="M36.22,271.45l2.92,4.7h.23v-4.7h1.58v6.98h-2.27l-2.92-4.7h-.24v4.7h-1.57v-6.98h2.27Z"/>
    <path d="M44.52,271.45l2.92,4.7h.23v-4.7h1.58v6.98h-2.27l-2.92-4.7h-.24v4.7h-1.57v-6.98h2.27Z"/>
    <path d="M56.41,271.45v1.39h-4.16v1.38h3.65v1.32h-3.65v1.5h4.21v1.4h-5.92v-6.98h5.86Z"/>
  </g>
  <path d="M167.8,271.95v1.34h-1.4v3.93h1.4v1.34h-4.43v-1.34h1.4v-3.93h-1.4v-1.34h4.43Z"/>
  <path d="M172.24,271.85c1.92,0,3.32.99,3.32,2.83v1.16c0,1.84-1.4,2.81-3.32,2.81h-.26c-1.94,0-3.36-.98-3.36-2.81v-1.16c0-1.84,1.42-2.83,3.36-2.83h.26ZM170.26,274.72v1.06c0,.96.63,1.47,1.73,1.47h.23c1.07,0,1.72-.51,1.72-1.47v-1.06c0-.95-.64-1.46-1.72-1.46h-.23c-1.09,0-1.73.51-1.73,1.46Z"/>
  <path d="M178.8,271.95l2.76,4.45h.22v-4.45h1.5v6.61h-2.15l-2.76-4.45h-.23v4.45h-1.49v-6.61h2.15Z"/>
  <path class="cls-5" d="M165.05,279.61l-4.13-5.18,3.67-4.77c.05-.06.05-.11,0-.16-.05-.04-.14-.07-.25-.07h-1.45c-.12,0-.21.01-.28.04-.07.02-.13.07-.18.14l-2.77,3.78-7.71-10.36c-.05-.07-.11-.12-.18-.14-.07-.02-.16-.04-.28-.04h-1.75c-.12,0-.2.02-.25.07-.05.04-.05.1,0,.16l8.7,11.28-4.07,5.26c-.05.06-.05.11,0,.16.05.04.13.07.25.07h1.45c.12,0,.21-.01.28-.04.07-.02.13-.07.18-.14l3.18-4.26,3.1,4.26c.05.07.11.12.18.14.07.02.16.04.28.04h1.78c.12,0,.2-.02.25-.07.05-.04.05-.1,0-.16Z"/>
  <g>
    <path class="cls-5" d="M131.15,264.07c1.92,0,3.32.99,3.32,2.83v1.16c0,1.84-1.4,2.81-3.32,2.81h-.26c-1.94,0-3.36-.98-3.36-2.81v-1.16c0-1.84,1.42-2.83,3.36-2.83h.26ZM129.17,266.94v1.06c0,.96.63,1.47,1.73,1.47h.23c1.07,0,1.72-.51,1.72-1.47v-1.06c0-.95-.64-1.46-1.72-1.46h-.23c-1.09,0-1.73.51-1.73,1.46Z"/>
    <path class="cls-5" d="M137.71,264.17l2.76,4.45h.22v-4.45h1.5v6.61h-2.15l-2.76-4.45h-.23v4.45h-1.49v-6.61h2.15Z"/>
    <path class="cls-5" d="M148.97,264.17v1.31h-3.94v1.3h3.45v1.25h-3.45v1.42h3.99v1.32h-5.6v-6.61h5.55Z"/>
    <path d="M123.43,271.85c1.96,0,3.2.91,3.2,2.57v.16h-1.64v-.16c0-.73-.52-1.16-1.57-1.16h-.21c-1.03,0-1.6.46-1.6,1.39v1.18c0,.98.58,1.41,1.6,1.41h.21c1.05,0,1.6-.43,1.6-1.19v-.1h1.65v.1c0,1.71-1.27,2.6-3.24,2.6h-.22c-1.91,0-3.24-.91-3.24-2.82v-1.18c0-1.86,1.32-2.8,3.24-2.8h.22Z"/>
    <path d="M131.15,271.85c1.92,0,3.32.99,3.32,2.83v1.16c0,1.84-1.4,2.81-3.32,2.81h-.26c-1.94,0-3.36-.98-3.36-2.81v-1.16c0-1.84,1.42-2.83,3.36-2.83h.26ZM129.17,274.72v1.06c0,.96.63,1.47,1.73,1.47h.23c1.08,0,1.72-.51,1.72-1.47v-1.06c0-.95-.64-1.46-1.72-1.46h-.23c-1.1,0-1.73.51-1.73,1.46Z"/>
    <path d="M137.71,271.95l2.76,4.45h.22v-4.45h1.5v6.61h-2.15l-2.76-4.45h-.23v4.45h-1.49v-6.61h2.15Z"/>
    <path d="M145.57,271.95l2.76,4.45h.22v-4.45h1.5v6.61h-2.15l-2.76-4.45h-.23v4.45h-1.49v-6.61h2.15Z"/>
    <path d="M156.83,271.95v1.31h-3.94v1.3h3.45v1.25h-3.45v1.42h3.99v1.32h-5.6v-6.61h5.55Z"/>
  </g>
  <path class="cls-5" d="M269.04,271.98v1.42h-1.48v4.15h1.48v1.42h-4.68v-1.42h1.48v-4.15h-1.48v-1.42h4.68Z"/>
  <path class="cls-5" d="M273.73,271.88c2.03,0,3.51,1.04,3.51,2.99v1.23c0,1.94-1.48,2.97-3.51,2.97h-.27c-2.05,0-3.55-1.03-3.55-2.97v-1.23c0-1.95,1.5-2.99,3.55-2.99h.27ZM271.63,274.91v1.11c0,1.01.67,1.55,1.82,1.55h.24c1.13,0,1.81-.54,1.81-1.55v-1.11c0-1-.68-1.54-1.81-1.54h-.24c-1.16,0-1.82.54-1.82,1.54Z"/>
  <path class="cls-5" d="M280.66,271.98l2.92,4.7h.23v-4.7h1.58v6.98h-2.27l-2.92-4.7h-.24v4.7h-1.57v-6.98h2.27Z"/>
  <path class="cls-1" d="M266.13,280.07l-4.36-5.47,3.88-5.04c.05-.06.05-.12,0-.16-.05-.05-.14-.07-.27-.07h-1.53c-.13,0-.22.01-.3.04-.07.03-.13.08-.19.15l-2.92,3.99-8.14-10.94c-.05-.07-.12-.12-.19-.15-.07-.03-.17-.04-.3-.04h-1.85c-.13,0-.21.02-.27.07-.05.05-.05.1,0,.16l9.19,11.91-4.3,5.55c-.05.06-.05.12,0,.16.05.05.14.07.27.07h1.53c.13,0,.22-.01.3-.04.07-.03.13-.08.19-.15l3.36-4.5,3.27,4.5c.05.07.12.12.19.15.07.03.17.04.3.04h1.88c.13,0,.22-.02.27-.07s.05-.1,0-.16Z"/>
  <g>
    <path class="cls-1" d="M230.34,263.66c2.03,0,3.51,1.04,3.51,2.99v1.23c0,1.94-1.48,2.97-3.51,2.97h-.27c-2.05,0-3.55-1.03-3.55-2.97v-1.23c0-1.95,1.5-2.99,3.55-2.99h.27ZM228.24,266.69v1.11c0,1.01.67,1.55,1.82,1.55h.24c1.13,0,1.81-.54,1.81-1.55v-1.11c0-1-.68-1.54-1.81-1.54h-.24c-1.16,0-1.82.54-1.82,1.54Z"/>
    <path class="cls-1" d="M237.27,263.76l2.92,4.7h.23v-4.7h1.58v6.98h-2.27l-2.92-4.7h-.24v4.7h-1.57v-6.98h2.27Z"/>
    <path class="cls-1" d="M249.16,263.76v1.39h-4.16v1.38h3.65v1.32h-3.65v1.5h4.21v1.4h-5.92v-6.98h5.87Z"/>
    <path class="cls-5" d="M222.18,271.88c2.07,0,3.38.96,3.38,2.72v.17h-1.73v-.17c0-.77-.55-1.23-1.66-1.23h-.22c-1.08,0-1.69.49-1.69,1.47v1.25c0,1.03.61,1.49,1.69,1.49h.22c1.1,0,1.69-.46,1.69-1.26v-.1h1.74v.1c0,1.8-1.34,2.75-3.42,2.75h-.23c-2.02,0-3.42-.96-3.42-2.98v-1.25c0-1.97,1.4-2.96,3.42-2.96h.23Z"/>
    <path class="cls-5" d="M230.34,271.88c2.03,0,3.51,1.04,3.51,2.99v1.23c0,1.94-1.48,2.97-3.51,2.97h-.27c-2.05,0-3.55-1.03-3.55-2.97v-1.23c0-1.95,1.5-2.99,3.55-2.99h.27ZM228.24,274.91v1.11c0,1.01.67,1.55,1.82,1.55h.24c1.14,0,1.81-.54,1.81-1.55v-1.11c0-1-.68-1.54-1.81-1.54h-.24c-1.16,0-1.82.54-1.82,1.54Z"/>
    <path class="cls-5" d="M237.27,271.98l2.92,4.7h.23v-4.7h1.58v6.98h-2.27l-2.92-4.7h-.24v4.7h-1.57v-6.98h2.27Z"/>
    <path class="cls-5" d="M245.56,271.98l2.92,4.7h.23v-4.7h1.58v6.98h-2.27l-2.92-4.7h-.24v4.7h-1.57v-6.98h2.27Z"/>
    <path class="cls-5" d="M257.45,271.98v1.39h-4.16v1.38h3.65v1.32h-3.65v1.5h4.21v1.4h-5.92v-6.98h5.86Z"/>
  </g>
  <path d="M101.58,52.9v2.29h-2.39v6.71h2.39v2.29h-7.57v-2.29h2.39v-6.71h-2.39v-2.29h7.57Z"/>
  <path d="M109.17,52.73c3.29,0,5.68,1.69,5.68,4.84v1.99c0,3.13-2.39,4.8-5.68,4.8h-.44c-3.32,0-5.75-1.67-5.75-4.8v-1.99c0-3.15,2.43-4.84,5.75-4.84h.44ZM105.79,57.63v1.8c0,1.63,1.08,2.51,2.95,2.51h.39c1.84,0,2.93-.88,2.93-2.51v-1.8c0-1.62-1.1-2.49-2.93-2.49h-.39c-1.87,0-2.95.88-2.95,2.49Z"/>
  <path d="M120.39,52.9l4.72,7.6h.37v-7.6h2.56v11.29h-3.67l-4.72-7.6h-.39v7.6h-2.55v-11.29h3.67Z"/>
  <path class="cls-1" d="M96.89,65.98l-7.05-8.85,6.27-8.15c.09-.1.09-.19,0-.27-.09-.08-.23-.11-.43-.11h-2.48c-.2,0-.36.02-.48.06-.12.04-.22.12-.3.24l-4.72,6.46-13.17-17.7c-.09-.12-.19-.2-.3-.24-.12-.04-.28-.06-.48-.06h-3c-.2,0-.35.04-.43.11-.09.08-.09.16,0,.27l14.87,19.26-6.96,8.98c-.09.1-.09.19,0,.27.09.08.23.11.43.11h2.48c.2,0,.36-.02.48-.06.12-.04.22-.12.3-.24l5.43-7.28,5.29,7.28c.09.12.19.2.3.24.12.04.27.06.48.06h3.04c.2,0,.35-.04.44-.11s.09-.17,0-.27Z"/>
  <g>
    <path class="cls-1" d="M38.98,39.43c3.29,0,5.68,1.69,5.68,4.84v1.99c0,3.13-2.39,4.8-5.68,4.8h-.44c-3.32,0-5.75-1.67-5.75-4.8v-1.99c0-3.15,2.43-4.84,5.75-4.84h.44ZM35.59,44.33v1.8c0,1.63,1.08,2.51,2.95,2.51h.39c1.84,0,2.93-.88,2.93-2.51v-1.8c0-1.62-1.1-2.49-2.93-2.49h-.39c-1.87,0-2.95.88-2.95,2.49Z"/>
    <path class="cls-1" d="M50.2,39.6l4.72,7.6h.37v-7.6h2.56v11.29h-3.67l-4.72-7.6h-.39v7.6h-2.55v-11.29h3.67Z"/>
    <path class="cls-1" d="M69.43,39.6v2.24h-6.73v2.22h5.9v2.14h-5.9v2.43h6.81v2.26h-9.57v-11.29h9.49Z"/>
    <path d="M25.8,52.73c3.35,0,5.46,1.55,5.46,4.4v.27h-2.8v-.27c0-1.25-.89-1.99-2.68-1.99h-.35c-1.75,0-2.73.79-2.73,2.38v2.02c0,1.67.99,2.41,2.73,2.41h.35c1.79,0,2.73-.74,2.73-2.04v-.17h2.81v.17c0,2.92-2.17,4.45-5.53,4.45h-.37c-3.27,0-5.53-1.55-5.53-4.82v-2.02c0-3.18,2.26-4.79,5.53-4.79h.37Z"/>
    <path d="M38.98,52.73c3.29,0,5.68,1.69,5.68,4.84v1.99c0,3.13-2.39,4.8-5.68,4.8h-.44c-3.32,0-5.75-1.67-5.75-4.8v-1.99c0-3.15,2.43-4.84,5.75-4.84h.44ZM35.59,57.63v1.8c0,1.63,1.08,2.51,2.95,2.51h.39c1.84,0,2.93-.88,2.93-2.51v-1.8c0-1.62-1.1-2.49-2.93-2.49h-.39c-1.87,0-2.95.88-2.95,2.49Z"/>
    <path d="M50.19,52.9l4.72,7.6h.37v-7.6h2.56v11.29h-3.67l-4.72-7.6h-.39v7.6h-2.54v-11.29h3.67Z"/>
    <path d="M63.62,52.9l4.72,7.6h.37v-7.6h2.56v11.29h-3.67l-4.72-7.6h-.39v7.6h-2.54v-11.29h3.67Z"/>
    <path d="M82.85,52.9v2.24h-6.72v2.22h5.9v2.14h-5.9v2.43h6.81v2.26h-9.57v-11.29h9.49Z"/>
  </g>
  <text class="cls-4" transform="translate(62.19 15.57)"><tspan class="cls-11" x="0" y="0">L</tspan><tspan class="cls-16" x="5.28" y="0">o</tspan><tspan class="cls-17" x="10.99" y="0">g</tspan><tspan x="16.36" y="0">o</tspan></text>
  <line class="cls-6" x1="-.18" y1="23.01" x2="300.18" y2="23.01"/>
  <text class="cls-4" transform="translate(195.01 15.42)"><tspan class="cls-8" x="0" y="0">T</tspan><tspan x="5.67" y="0">y</tspan><tspan class="cls-15" x="11.04" y="0">p</tspan><tspan class="cls-16" x="16.92" y="0">o</tspan><tspan x="22.63" y="0">g</tspan><tspan class="cls-10" x="28.1" y="0">r</tspan><tspan x="32.49" y="0">aphie</tspan></text>
  <text class="cls-3" transform="translate(193.66 49.81)"><tspan class="cls-9" x="0" y="0">L</tspan><tspan class="cls-13" x="6.35" y="0">o</tspan><tspan class="cls-18" x="13.52" y="0">o</tspan><tspan x="20.68" y="0">s Wide </tspan><tspan class="cls-20" x="16.47" y="13.2">B</tspan><tspan x="24.28" y="13.2">old</tspan></text>
  <line class="cls-6" x1="149.66" x2="149.66" y2="84.45"/>
  <line class="cls-6" x1="-.13" y1="84.45" x2="300.23" y2="84.45"/>
  <line class="cls-6" x1="300.18" y1="223.69" x2="-.86" y2="223.69"/>
  <text class="cls-4" transform="translate(87.82 236.88)"><tspan class="cls-14" x="0" y="0">D</tspan><tspan x="6.78" y="0">éclinai</tspan><tspan class="cls-19" x="34.14" y="0">s</tspan><tspan x="39.28" y="0">on </tspan><tspan class="cls-15" x="52.75" y="0">c</tspan><tspan x="58.4" y="0">ouleur sur </tspan><tspan class="cls-12" x="106.63" y="0">f</tspan><tspan x="109.69" y="0">ond</tspan></text>
  <g>
    <path class="cls-1" d="M136.13,159.88c1.99-.5,3.7.15,4.19,2.06l.3,1.21c.48,1.9-.72,3.28-2.71,3.78l-.27.07c-2.01.51-3.74-.13-4.22-2.03l-.3-1.21c-.48-1.91.73-3.31,2.74-3.81l.27-.07ZM134.82,163.37l.28,1.09c.25.99,1.04,1.36,2.17,1.07l.24-.06c1.11-.28,1.64-.98,1.39-1.97l-.28-1.09c-.25-.98-1.05-1.34-2.16-1.06l-.24.06c-1.13.29-1.65.98-1.41,1.97Z"/>
    <path class="cls-1" d="M145.42,159.47l2.01,5.22.23.04.89-4.67,1.57.3-1.32,6.94-2.26-.43-2.01-5.22-.24-.05-.89,4.67-1.56-.3,1.32-6.94,2.26.43Z"/>
    <path class="cls-1" d="M158.25,165.17l-.78,1.16-3.48-2.36-.78,1.15,3.05,2.07-.75,1.11-3.05-2.07-.85,1.26,3.53,2.38-.79,1.17-4.96-3.35,3.95-5.85,4.91,3.32Z"/>
    <path d="M164.11,172.89c.94,1.88.66,3.49-.93,4.28l-.15.08-.78-1.56.15-.08c.7-.35.86-1.06.36-2.06l-.1-.2c-.49-.98-1.21-1.3-2.09-.86l-1.13.57c-.93.47-1.07,1.23-.58,2.2l.1.2c.5,1,1.18,1.32,1.9.96l.09-.05.79,1.57-.09.05c-1.63.82-3.1.03-4.04-1.85l-.1-.21c-.91-1.83-.68-3.53,1.15-4.44l1.13-.57c1.78-.89,3.31-.08,4.22,1.75l.1.21Z"/>
    <path d="M166.64,183.08c.07,2.05-.93,3.59-2.9,3.65l-1.24.04c-1.96.07-3.05-1.39-3.12-3.45v-.27c-.08-2.07.91-3.63,2.87-3.69l1.24-.04c1.97-.07,3.07,1.41,3.15,3.49v.27ZM163.5,181.07l-1.13.04c-1.02.04-1.55.73-1.51,1.9v.24c.05,1.15.62,1.81,1.64,1.78l1.13-.04c1.01-.03,1.53-.74,1.5-1.89v-.24c-.05-1.17-.62-1.82-1.63-1.79Z"/>
    <path d="M165.08,192.26l-5.53.85-.09.21,4.37,1.86-.63,1.47-6.5-2.77.9-2.11,5.53-.85.09-.22-4.37-1.86.62-1.46,6.5,2.77-.9,2.11Z"/>
    <path d="M159.33,201.2l-5.37-1.56-.17.15,3.18,3.54-1.19,1.07-4.72-5.25,1.71-1.54,5.37,1.56.18-.16-3.18-3.54,1.18-1.06,4.72,5.25-1.71,1.54Z"/>
    <path d="M147.03,207.99l-.45-1.33,3.98-1.35-.45-1.32-3.49,1.18-.43-1.27,3.49-1.18-.49-1.44-4.03,1.37-.45-1.34,5.67-1.92,2.27,6.69-5.62,1.9Z"/>
    <path d="M142.14,208.37l-1.45-2.53-.45-.03-1.73,2.31-1.84-.12,2.5-3.35-2.16-3.7,2.01.13,1.52,2.63.48.03,1.78-2.4,1.84.12-2.53,3.42,2.04,3.62-2.01-.14Z"/>
    <path d="M129.73,205.14l.59-1.3,1.36.62,1.74-3.82-1.36-.62.59-1.3,4.31,1.96-.59,1.3-1.36-.62-1.74,3.82,1.36.62-.59,1.3-4.31-1.96Z"/>
    <path d="M124.45,201.04c-1.45-1.46-1.76-3.26-.36-4.65l.88-.88c1.39-1.38,3.19-1.06,4.64.4l.19.19c1.46,1.47,1.79,3.29.4,4.67l-.88.88c-1.4,1.39-3.22,1.06-4.68-.42l-.19-.19ZM128.12,200.38l.8-.8c.73-.72.64-1.59-.19-2.42l-.17-.17c-.81-.82-1.68-.91-2.41-.19l-.8.8c-.72.71-.62,1.59.19,2.4l.17.17c.82.83,1.69.92,2.41.21Z"/>
    <path d="M119.36,193.23l3.48-4.38-.08-.22-4.47,1.6-.54-1.51,6.65-2.38.78,2.16-3.48,4.38.08.23,4.47-1.6.54,1.5-6.65,2.38-.78-2.16Z"/>
  </g>
  <path class="cls-2" d="M152.79,194.03l-7.81-9.8,6.94-9.02c.1-.11.1-.21,0-.29-.1-.08-.26-.13-.48-.13h-2.74c-.22,0-.4.02-.53.07-.13.05-.24.14-.34.27l-5.23,7.15-14.58-19.59c-.1-.13-.21-.22-.34-.27-.13-.05-.31-.07-.53-.07h-3.32c-.22,0-.38.04-.48.13-.1.08-.1.18,0,.29l16.46,21.33-7.7,9.94c-.1.11-.1.21,0,.3.1.08.26.13.48.13h2.74c.22,0,.4-.02.53-.07.13-.05.24-.14.34-.27l6.01-8.06,5.86,8.06c.1.13.21.22.34.27.13.05.3.07.53.07h3.36c.22,0,.39-.04.48-.13s.1-.18,0-.3Z"/>
  <line class="cls-6" x1="300.18" y1="104.7" x2="-.86" y2="104.7"/>
  <text class="cls-4" transform="translate(108.7 97.89)"><tspan class="cls-14" x="0" y="0">D</tspan><tspan x="6.78" y="0">éclinai</tspan><tspan class="cls-19" x="34.14" y="0">s</tspan><tspan x="39.28" y="0">on de l</tspan><tspan class="cls-16" x="68.25" y="0">o</tspan><tspan class="cls-17" x="73.96" y="0">g</tspan><tspan x="79.33" y="0">o</tspan></text>
  <line class="cls-6" x1="299.72" y1="245.09" x2="-1.33" y2="245.09"/>
  <path d="M64.74,147.62l-6.85-8.6,6.09-7.92c.09-.1.09-.18,0-.26-.08-.07-.23-.11-.42-.11h-2.4c-.2,0-.35.02-.46.06-.11.04-.21.12-.3.23l-4.59,6.27-12.79-17.19c-.09-.11-.18-.19-.3-.23-.11-.04-.27-.06-.46-.06h-2.91c-.2,0-.34.04-.42.11-.09.07-.09.16,0,.26l14.44,18.71-6.76,8.72c-.09.1-.09.19,0,.26.08.07.22.11.42.11h2.4c.2,0,.35-.02.46-.06.11-.04.21-.12.3-.23l5.28-7.07,5.14,7.07c.09.12.18.19.3.23.11.04.27.06.46.06h2.95c.2,0,.34-.04.42-.11s.08-.16,0-.26Z"/>
  <path class="cls-1" d="M34.76,150.46c4.67,0,8.08,2.4,8.08,6.88v2.83c0,4.46-3.4,6.83-8.08,6.83h-.62c-4.72,0-8.17-2.37-8.17-6.83v-2.83c0-4.48,3.45-6.88,8.17-6.88h.62ZM29.94,157.44v2.56c0,2.33,1.53,3.57,4.19,3.57h.55c2.61,0,4.17-1.25,4.17-3.57v-2.56c0-2.3-1.56-3.55-4.17-3.55h-.55c-2.66,0-4.19,1.25-4.19,3.55Z"/>
  <path class="cls-1" d="M52.14,150.7l6.71,10.81h.53v-10.81h3.64v16.06h-5.22l-6.71-10.81h-.55v10.81h-3.62v-16.06h5.23Z"/>
  <path class="cls-1" d="M80.92,150.7v3.19h-9.57v3.16h8.39v3.04h-8.39v3.45h9.68v3.21h-13.62v-16.06h13.5Z"/>
  <g>
    <path d="M28.19,168.99c1.7,0,2.77.79,2.77,2.23v.14h-1.42v-.14c0-.63-.45-1.01-1.36-1.01h-.18c-.89,0-1.38.4-1.38,1.21v1.03c0,.85.5,1.22,1.38,1.22h.18c.91,0,1.38-.38,1.38-1.03v-.08h1.43v.08c0,1.48-1.1,2.26-2.8,2.26h-.19c-1.66,0-2.8-.79-2.8-2.44v-1.03c0-1.62,1.15-2.43,2.8-2.43h.19Z"/>
    <path d="M34.87,168.99c1.67,0,2.88.85,2.88,2.45v1.01c0,1.59-1.21,2.43-2.88,2.43h-.22c-1.68,0-2.91-.85-2.91-2.43v-1.01c0-1.6,1.23-2.45,2.91-2.45h.22ZM33.16,171.48v.92c0,.83.55,1.27,1.5,1.27h.2c.93,0,1.49-.44,1.49-1.27v-.92c0-.82-.56-1.26-1.49-1.26h-.2c-.95,0-1.5.44-1.5,1.26Z"/>
    <path d="M40.55,169.08l2.39,3.85h.19v-3.85h1.3v5.73h-1.86l-2.39-3.85h-.2v3.85h-1.29v-5.73h1.86Z"/>
    <path d="M47.35,169.08l2.39,3.85h.19v-3.85h1.3v5.73h-1.86l-2.39-3.85h-.2v3.85h-1.29v-5.73h1.86Z"/>
    <path d="M57.1,169.08v1.14h-3.41v1.13h2.99v1.08h-2.99v1.23h3.45v1.15h-4.85v-5.73h4.81Z"/>
    <path d="M59.35,169.08l1.31,1.97h.37l1.27-1.97h1.5l-1.84,2.85,1.95,2.88h-1.63l-1.38-2.04h-.39l-1.31,2.04h-1.5l1.86-2.91-1.85-2.82h1.63Z"/>
    <path d="M68.28,169.08v1.16h-1.21v3.4h1.21v1.16h-3.84v-1.16h1.21v-3.4h-1.21v-1.16h3.84Z"/>
    <path d="M72.12,168.99c1.67,0,2.88.85,2.88,2.45v1.01c0,1.59-1.21,2.43-2.88,2.43h-.22c-1.68,0-2.91-.85-2.91-2.43v-1.01c0-1.6,1.23-2.45,2.91-2.45h.22ZM70.41,171.48v.92c0,.83.55,1.27,1.5,1.27h.2c.93,0,1.49-.44,1.49-1.27v-.92c0-.82-.56-1.26-1.49-1.26h-.2c-.95,0-1.5.44-1.5,1.26Z"/>
    <path d="M77.8,169.08l2.39,3.85h.19v-3.85h1.3v5.73h-1.86l-2.39-3.85h-.2v3.85h-1.29v-5.73h1.86Z"/>
  </g>
  <path d="M263.33,132.49v1.73h-1.81v5.06h1.81v1.73h-5.71v-1.73h1.81v-5.06h-1.81v-1.73h5.71Z"/>
  <path d="M269.06,132.36c2.48,0,4.29,1.27,4.29,3.65v1.5c0,2.37-1.81,3.63-4.29,3.63h-.33c-2.51,0-4.34-1.26-4.34-3.63v-1.5c0-2.38,1.83-3.65,4.34-3.65h.33ZM266.5,136.06v1.36c0,1.23.81,1.9,2.23,1.9h.29c1.39,0,2.21-.66,2.21-1.9v-1.36c0-1.22-.83-1.88-2.21-1.88h-.29c-1.41,0-2.23.66-2.23,1.88Z"/>
  <path d="M277.52,132.49l3.56,5.74h.28v-5.74h1.93v8.52h-2.77l-3.56-5.74h-.29v5.74h-1.92v-8.52h2.77Z"/>
  <path class="cls-1" d="M259.78,142.36l-5.32-6.68,4.73-6.15c.07-.08.07-.14,0-.2-.07-.06-.18-.09-.33-.09h-1.87c-.15,0-.27.02-.36.05-.09.03-.16.09-.23.18l-3.57,4.87-9.94-13.36c-.07-.09-.14-.15-.23-.18-.09-.03-.21-.05-.36-.05h-2.26c-.15,0-.26.03-.33.09-.07.06-.07.12,0,.2l11.22,14.54-5.25,6.78c-.07.08-.07.14,0,.2.07.06.17.09.33.09h1.87c.15,0,.27-.02.36-.05.09-.03.16-.09.23-.18l4.1-5.5,4,5.5c.07.09.14.15.23.18.09.03.21.05.36.05h2.29c.15,0,.26-.03.33-.09s.07-.12,0-.2Z"/>
  <g>
    <path d="M174.4,132.36c2.48,0,4.29,1.27,4.29,3.65v1.5c0,2.37-1.81,3.63-4.29,3.63h-.33c-2.51,0-4.34-1.26-4.34-3.63v-1.5c0-2.38,1.83-3.65,4.34-3.65h.33ZM171.84,136.06v1.36c0,1.23.81,1.9,2.23,1.9h.29c1.39,0,2.21-.66,2.21-1.9v-1.36c0-1.22-.83-1.88-2.21-1.88h-.29c-1.41,0-2.23.66-2.23,1.88Z"/>
    <path d="M182.86,132.48l3.56,5.74h.28v-5.74h1.93v8.52h-2.77l-3.56-5.74h-.29v5.74h-1.92v-8.52h2.77Z"/>
    <path d="M197.38,132.48v1.69h-5.08v1.68h4.45v1.62h-4.45v1.83h5.14v1.7h-7.23v-8.52h7.16Z"/>
    <path d="M206.12,132.36c2.53,0,4.12,1.17,4.12,3.32v.2h-2.11v-.2c0-.94-.67-1.5-2.02-1.5h-.27c-1.32,0-2.06.6-2.06,1.79v1.53c0,1.26.75,1.82,2.06,1.82h.27c1.35,0,2.06-.56,2.06-1.54v-.13h2.12v.13c0,2.2-1.64,3.36-4.17,3.36h-.28c-2.47,0-4.17-1.17-4.17-3.64v-1.53c0-2.4,1.7-3.61,4.17-3.61h.28Z"/>
    <path d="M216.07,132.36c2.48,0,4.29,1.27,4.29,3.65v1.5c0,2.37-1.81,3.63-4.29,3.63h-.33c-2.51,0-4.34-1.26-4.34-3.63v-1.5c0-2.38,1.83-3.65,4.34-3.65h.33ZM213.52,136.06v1.36c0,1.23.81,1.9,2.23,1.9h.29c1.39,0,2.21-.66,2.21-1.9v-1.36c0-1.22-.83-1.88-2.21-1.88h-.29c-1.41,0-2.23.66-2.23,1.88Z"/>
    <path d="M224.54,132.49l3.56,5.74h.28v-5.74h1.93v8.52h-2.77l-3.56-5.74h-.29v5.74h-1.92v-8.52h2.77Z"/>
    <path d="M234.67,132.49l3.56,5.74h.28v-5.74h1.93v8.52h-2.77l-3.56-5.74h-.29v5.74h-1.92v-8.52h2.77Z"/>
    <path d="M249.19,132.49v1.69h-5.08v1.68h4.45v1.62h-4.45v1.83h5.14v1.7h-7.22v-8.52h7.16Z"/>
  </g>
  <path class="cls-1" d="M224.28,195.87l-7.05-8.85,6.27-8.15c.09-.1.09-.19,0-.27-.09-.08-.23-.11-.43-.11h-2.48c-.2,0-.36.02-.48.06-.12.04-.22.12-.3.24l-4.72,6.46-13.17-17.7c-.09-.12-.19-.2-.3-.24-.12-.04-.28-.06-.48-.06h-3c-.2,0-.35.04-.43.11-.09.08-.09.16,0,.27l14.87,19.26-6.96,8.98c-.09.1-.09.19,0,.27.09.08.23.11.43.11h2.48c.2,0,.36-.02.48-.06.12-.04.22-.12.3-.24l5.43-7.28,5.29,7.28c.09.12.19.2.3.24.12.04.27.06.48.06h3.04c.2,0,.35-.04.44-.11s.09-.17,0-.27Z"/>
  <path class="cls-7" d="M209.74,173.24c1.37-.49,2.83-.78,4.35-.86,8.4-.41,15.54,6.06,15.95,14.45s-6.06,15.54-14.45,15.95-15.54-6.06-15.95-14.45c-.18-3.66.95-7.08,2.98-9.81"/>
  <g>
    <path class="cls-1" d="M265.69,196.75c-.26,0-.48-.03-.65-.09-.21-.07-.39-.21-.54-.41l-4.9-6.74-5.03,6.74c-.14.2-.32.34-.53.41-.17.06-.38.09-.65.09h-2.48c-.33,0-.58-.08-.76-.24-.3-.26-.32-.66-.05-.97l6.71-8.65-14.63-18.96c-.25-.29-.23-.69.07-.95.18-.16.43-.24.76-.24h3c.26,0,.47.03.65.09.21.08.39.22.54.41l12.77,17.15,4.32-5.91c.14-.2.33-.34.54-.42.17-.06.38-.09.65-.09h2.47c.33,0,.58.08.77.24.29.26.32.66.05.97l-6.01,7.82,6.81,8.54c.25.3.23.7-.06.95-.18.16-.43.24-.76.24h-3.04Z"/>
    <path class="cls-5" d="M246.01,167.24c.2,0,.36.02.48.06.12.04.22.12.3.24l13.17,17.7,4.72-6.46c.09-.12.19-.2.3-.24.12-.04.27-.06.48-.06h2.48c.2,0,.35.04.43.11.09.08.09.16,0,.27l-6.27,8.15,7.05,8.85c.09.1.09.19,0,.27s-.23.11-.43.11h-3.04c-.2,0-.36-.02-.48-.06-.12-.04-.22-.12-.3-.24l-5.29-7.28-5.43,7.28c-.09.12-.19.2-.3.24-.12.04-.27.06-.48.06h-2.48c-.2,0-.35-.04-.43-.11-.09-.08-.09-.17,0-.27l6.96-8.98-14.87-19.26c-.09-.1-.09-.19,0-.27.09-.08.23-.11.43-.11h3M246.01,166.24h-3c-.45,0-.82.12-1.09.36-.49.43-.54,1.13-.12,1.64l14.39,18.64-6.47,8.35c-.42.52-.37,1.22.12,1.65.27.24.64.36,1.09.36h2.48c.32,0,.59-.04.82-.12.31-.11.57-.32.77-.59l4.61-6.18,4.5,6.18c.21.29.47.48.77.59.23.08.5.12.82.12h3.04c.45,0,.82-.12,1.1-.36.49-.44.54-1.15.1-1.67l-6.54-8.21,5.78-7.51c.42-.52.37-1.22-.13-1.65-.27-.24-.64-.36-1.09-.36h-2.48c-.32,0-.59.04-.82.12-.31.11-.57.31-.77.59l-3.92,5.36-12.36-16.61c-.21-.28-.46-.47-.76-.58-.24-.09-.5-.13-.82-.13h0Z"/>
  </g>
</svg>
