<?xml version="1.0" encoding="UTF-8"?>
<svg id="Calque_1" data-name="Calque 1" xmlns="http://www.w3.org/2000/svg" viewBox="0 95 300 110">
  <defs>
    <style>
      .cls-1 {
        fill: #fff;
      }
    </style>
  </defs>
  <path d="M215.03,143.39v5.01h-5.23v14.65h5.23v5.01h-16.52v-5.01h5.23v-14.65h-5.23v-5.01h16.52Z"/>
  <path d="M231.6,143.02c7.18,0,12.4,3.68,12.4,10.56v4.34c0,6.85-5.23,10.49-12.4,10.49h-.96c-7.25,0-12.55-3.64-12.55-10.49v-4.34c0-6.88,5.3-10.56,12.55-10.56h.96ZM224.21,153.73v3.94c0,3.57,2.36,5.48,6.44,5.48h.85c4.01,0,6.4-1.91,6.4-5.48v-3.94c0-3.53-2.39-5.45-6.4-5.45h-.85c-4.08,0-6.44,1.91-6.44,5.45Z"/>
  <path d="M256.09,143.39l10.3,16.6h.81v-16.6h5.59v24.66h-8.02l-10.31-16.6h-.85v16.6h-5.56v-24.66h8.02Z"/>
  <path class="cls-1" d="M204.78,171.96l-15.4-19.33,13.69-17.8c.19-.22.19-.42,0-.58-.19-.17-.51-.25-.95-.25h-5.41c-.44,0-.79.05-1.04.14-.25.09-.48.27-.67.53l-10.32,14.1-28.77-38.65c-.19-.26-.41-.43-.67-.53-.25-.09-.6-.14-1.04-.14h-6.54c-.44,0-.76.08-.95.25-.19.17-.19.36,0,.58l32.47,42.07-15.2,19.6c-.19.22-.19.42,0,.58.19.17.5.25.95.25h5.41c.44,0,.79-.05,1.04-.14.25-.09.48-.27.67-.53l11.86-15.9,11.56,15.9c.19.26.41.43.67.53.25.09.6.14,1.04.14h6.64c.44,0,.76-.08.95-.25.19-.17.19-.36,0-.58Z"/>
  <g>
    <path class="cls-1" d="M78.32,113.99c7.18,0,12.4,3.68,12.4,10.56v4.34c0,6.85-5.23,10.49-12.4,10.49h-.96c-7.25,0-12.55-3.64-12.55-10.49v-4.34c0-6.88,5.3-10.56,12.55-10.56h.96ZM70.92,124.69v3.94c0,3.57,2.36,5.48,6.44,5.48h.85c4.01,0,6.4-1.91,6.4-5.48v-3.94c0-3.53-2.39-5.45-6.4-5.45h-.85c-4.08,0-6.44,1.91-6.44,5.45Z"/>
    <path class="cls-1" d="M102.81,114.35l10.3,16.6h.81v-16.6h5.59v24.66h-8.02l-10.31-16.6h-.85v16.6h-5.56v-24.66h8.02Z"/>
    <path class="cls-1" d="M144.81,114.35v4.9h-14.69v4.86h12.88v4.67h-12.88v5.3h14.87v4.93h-20.9v-24.66h20.72Z"/>
    <path d="M49.52,143.02c7.32,0,11.92,3.39,11.92,9.61v.59h-6.11v-.59c0-2.72-1.95-4.34-5.85-4.34h-.77c-3.83,0-5.96,1.73-5.96,5.19v4.42c0,3.64,2.17,5.26,5.96,5.26h.77c3.9,0,5.96-1.62,5.96-4.45v-.37h6.15v.37c0,6.37-4.75,9.72-12.07,9.72h-.81c-7.14,0-12.07-3.39-12.07-10.53v-4.42c0-6.96,4.93-10.45,12.07-10.45h.81Z"/>
    <path d="M78.32,143.02c7.18,0,12.4,3.68,12.4,10.56v4.34c0,6.85-5.23,10.49-12.4,10.49h-.96c-7.25,0-12.55-3.64-12.55-10.49v-4.34c0-6.88,5.3-10.56,12.55-10.56h.96ZM70.92,153.73v3.94c0,3.57,2.36,5.48,6.44,5.48h.85c4.01,0,6.4-1.91,6.4-5.48v-3.94c0-3.53-2.39-5.45-6.4-5.45h-.85c-4.09,0-6.44,1.91-6.44,5.45Z"/>
    <path d="M102.8,143.39l10.31,16.6h.81v-16.6h5.59v24.66h-8.02l-10.3-16.6h-.85v16.6h-5.56v-24.66h8.02Z"/>
    <path d="M132.11,143.39l10.31,16.6h.81v-16.6h5.59v24.66h-8.02l-10.3-16.6h-.85v16.6h-5.56v-24.66h8.02Z"/>
    <path d="M174.12,143.39v4.9h-14.68v4.86h12.88v4.67h-12.88v5.3h14.87v4.93h-20.9v-24.66h20.72Z"/>
  </g>
</svg>
